<?xml version="1.0" encoding="UTF-8"?><svg xmlns="http://www.w3.org/2000/svg" xmlns:xlink="http://www.w3.org/1999/xlink" fill-opacity="1" color-rendering="auto" color-interpolation="auto" text-rendering="auto" stroke="black" stroke-linecap="square" width="1970" stroke-miterlimit="10" shape-rendering="auto" stroke-opacity="1" fill="black" stroke-dasharray="none" font-weight="normal" stroke-width="1" height="1329" font-family="'Dialog'" font-style="normal" stroke-linejoin="miter" font-size="12px" stroke-dashoffset="0" image-rendering="auto">
  <!--Generated by ySVG 2.5-->
  <defs id="genericDefs"/>
  <g>
    <defs id="defs1">
      <clipPath clipPathUnits="userSpaceOnUse" id="clipPath1">
        <path d="M0 0 L1970 0 L1970 1329 L0 1329 L0 0 Z"/>
      </clipPath>
      <clipPath clipPathUnits="userSpaceOnUse" id="clipPath2">
        <path d="M416 -56 L1992 -56 L1992 1007.2 L416 1007.2 L416 -56 Z"/>
      </clipPath>
    </defs>
    <g font-size="16px" stroke-linecap="butt" transform="matrix(1.25,0,0,1.25,-520,70)" text-rendering="geometricPrecision" font-family="'Calibri'" shape-rendering="geometricPrecision" stroke-miterlimit="1.45">
      <text x="912.7109" xml:space="preserve" y="598.2656" clip-path="url(#clipPath2)" stroke="none">Route 1</text>
    </g>
    <g stroke-linecap="butt" transform="matrix(1.25,0,0,1.25,-520,70)" fill="rgb(1,117,200)" text-rendering="geometricPrecision" shape-rendering="geometricPrecision" stroke="rgb(1,117,200)" stroke-miterlimit="1.45">
      <rect fill="none" x="998" width="71" height="307.5" y="428.75" clip-path="url(#clipPath2)"/>
      <rect stroke-linecap="square" x="1008.5" y="443" clip-path="url(#clipPath2)" width="50" height="50" stroke="none" stroke-miterlimit="10"/>
    </g>
    <g stroke-linecap="butt" font-size="16px" transform="matrix(1.25,0,0,1.25,-520,70)" fill="white" text-rendering="geometricPrecision" font-family="'Calibri'" shape-rendering="geometricPrecision" stroke="white" stroke-miterlimit="1.45">
      <text x="1029.3672" xml:space="preserve" y="473.7656" clip-path="url(#clipPath2)" stroke="none">P</text>
    </g>
    <g fill="rgb(1,117,200)" text-rendering="geometricPrecision" shape-rendering="geometricPrecision" transform="matrix(1.25,0,0,1.25,-520,70)" stroke="rgb(1,117,200)">
      <rect x="1008.5" width="50" height="50" y="505.25" clip-path="url(#clipPath2)" stroke="none"/>
    </g>
    <g stroke-linecap="butt" font-size="16px" transform="matrix(1.25,0,0,1.25,-520,70)" fill="white" text-rendering="geometricPrecision" font-family="'Calibri'" shape-rendering="geometricPrecision" stroke="white" stroke-miterlimit="1.45">
      <text x="1029.3672" xml:space="preserve" y="536.0156" clip-path="url(#clipPath2)" stroke="none">P</text>
    </g>
    <g fill="rgb(1,117,200)" text-rendering="geometricPrecision" shape-rendering="geometricPrecision" transform="matrix(1.25,0,0,1.25,-520,70)" stroke="rgb(1,117,200)">
      <rect x="1008.5" width="50" height="50" y="567.5" clip-path="url(#clipPath2)" stroke="none"/>
    </g>
    <g stroke-linecap="butt" font-size="16px" transform="matrix(1.25,0,0,1.25,-520,70)" fill="white" text-rendering="geometricPrecision" font-family="'Calibri'" shape-rendering="geometricPrecision" stroke="white" stroke-miterlimit="1.45">
      <text x="1029.3672" xml:space="preserve" y="598.2656" clip-path="url(#clipPath2)" stroke="none">P</text>
    </g>
    <g fill="rgb(1,117,200)" text-rendering="geometricPrecision" shape-rendering="geometricPrecision" transform="matrix(1.25,0,0,1.25,-520,70)" stroke="rgb(1,117,200)">
      <rect x="1008.5" width="50" height="50" y="669.25" clip-path="url(#clipPath2)" stroke="none"/>
    </g>
    <g stroke-linecap="butt" font-size="16px" transform="matrix(1.25,0,0,1.25,-520,70)" fill="white" text-rendering="geometricPrecision" font-family="'Calibri'" shape-rendering="geometricPrecision" stroke="white" stroke-miterlimit="1.45">
      <text x="1029.3672" xml:space="preserve" y="700.0156" clip-path="url(#clipPath2)" stroke="none">P</text>
      <text fill="black" x="1027.4414" xml:space="preserve" y="649.1406" clip-path="url(#clipPath2)" stroke="none">...</text>
    </g>
    <g stroke-linecap="butt" transform="matrix(1.25,0,0,1.25,-520,70)" fill="rgb(1,117,200)" text-rendering="geometricPrecision" shape-rendering="geometricPrecision" stroke="rgb(1,117,200)" stroke-miterlimit="1.45">
      <rect fill="none" x="1099" width="71" height="307.5" y="428.75" clip-path="url(#clipPath2)"/>
      <rect stroke-linecap="square" x="1109.5" y="443" clip-path="url(#clipPath2)" width="50" height="50" stroke="none" stroke-miterlimit="10"/>
    </g>
    <g stroke-linecap="butt" font-size="16px" transform="matrix(1.25,0,0,1.25,-520,70)" fill="white" text-rendering="geometricPrecision" font-family="'Calibri'" shape-rendering="geometricPrecision" stroke="white" stroke-miterlimit="1.45">
      <text x="1130.3672" xml:space="preserve" y="473.7656" clip-path="url(#clipPath2)" stroke="none">P</text>
    </g>
    <g fill="rgb(1,117,200)" text-rendering="geometricPrecision" shape-rendering="geometricPrecision" transform="matrix(1.25,0,0,1.25,-520,70)" stroke="rgb(1,117,200)">
      <rect x="1109.5" width="50" height="50" y="505.25" clip-path="url(#clipPath2)" stroke="none"/>
    </g>
    <g stroke-linecap="butt" font-size="16px" transform="matrix(1.25,0,0,1.25,-520,70)" fill="white" text-rendering="geometricPrecision" font-family="'Calibri'" shape-rendering="geometricPrecision" stroke="white" stroke-miterlimit="1.45">
      <text x="1130.3672" xml:space="preserve" y="536.0156" clip-path="url(#clipPath2)" stroke="none">P</text>
    </g>
    <g fill="rgb(1,117,200)" text-rendering="geometricPrecision" shape-rendering="geometricPrecision" transform="matrix(1.25,0,0,1.25,-520,70)" stroke="rgb(1,117,200)">
      <rect x="1109.5" width="50" height="50" y="567.5" clip-path="url(#clipPath2)" stroke="none"/>
    </g>
    <g stroke-linecap="butt" font-size="16px" transform="matrix(1.25,0,0,1.25,-520,70)" fill="white" text-rendering="geometricPrecision" font-family="'Calibri'" shape-rendering="geometricPrecision" stroke="white" stroke-miterlimit="1.45">
      <text x="1130.3672" xml:space="preserve" y="598.2656" clip-path="url(#clipPath2)" stroke="none">P</text>
    </g>
    <g fill="rgb(1,117,200)" text-rendering="geometricPrecision" shape-rendering="geometricPrecision" transform="matrix(1.25,0,0,1.25,-520,70)" stroke="rgb(1,117,200)">
      <rect x="1109.5" width="50" height="50" y="669.25" clip-path="url(#clipPath2)" stroke="none"/>
    </g>
    <g stroke-linecap="butt" font-size="16px" transform="matrix(1.25,0,0,1.25,-520,70)" fill="white" text-rendering="geometricPrecision" font-family="'Calibri'" shape-rendering="geometricPrecision" stroke="white" stroke-miterlimit="1.45">
      <text x="1130.3672" xml:space="preserve" y="700.0156" clip-path="url(#clipPath2)" stroke="none">P</text>
      <text fill="black" x="1128.4414" xml:space="preserve" y="649.1406" clip-path="url(#clipPath2)" stroke="none">...</text>
    </g>
    <g stroke-linecap="butt" transform="matrix(1.25,0,0,1.25,-520,70)" fill="rgb(1,117,200)" text-rendering="geometricPrecision" shape-rendering="geometricPrecision" stroke="rgb(1,117,200)" stroke-miterlimit="1.45">
      <rect fill="none" x="1200" width="71" height="307.5" y="428.75" clip-path="url(#clipPath2)"/>
      <rect stroke-linecap="square" x="1210.5" y="443" clip-path="url(#clipPath2)" width="50" height="50" stroke="none" stroke-miterlimit="10"/>
    </g>
    <g stroke-linecap="butt" font-size="16px" transform="matrix(1.25,0,0,1.25,-520,70)" fill="white" text-rendering="geometricPrecision" font-family="'Calibri'" shape-rendering="geometricPrecision" stroke="white" stroke-miterlimit="1.45">
      <text x="1231.3672" xml:space="preserve" y="473.7656" clip-path="url(#clipPath2)" stroke="none">P</text>
    </g>
    <g fill="rgb(1,117,200)" text-rendering="geometricPrecision" shape-rendering="geometricPrecision" transform="matrix(1.25,0,0,1.25,-520,70)" stroke="rgb(1,117,200)">
      <rect x="1210.5" width="50" height="50" y="505.25" clip-path="url(#clipPath2)" stroke="none"/>
    </g>
    <g stroke-linecap="butt" font-size="16px" transform="matrix(1.25,0,0,1.25,-520,70)" fill="white" text-rendering="geometricPrecision" font-family="'Calibri'" shape-rendering="geometricPrecision" stroke="white" stroke-miterlimit="1.45">
      <text x="1231.3672" xml:space="preserve" y="536.0156" clip-path="url(#clipPath2)" stroke="none">P</text>
    </g>
    <g fill="rgb(1,117,200)" text-rendering="geometricPrecision" shape-rendering="geometricPrecision" transform="matrix(1.25,0,0,1.25,-520,70)" stroke="rgb(1,117,200)">
      <rect x="1210.5" width="50" height="50" y="567.5" clip-path="url(#clipPath2)" stroke="none"/>
    </g>
    <g stroke-linecap="butt" font-size="16px" transform="matrix(1.25,0,0,1.25,-520,70)" fill="white" text-rendering="geometricPrecision" font-family="'Calibri'" shape-rendering="geometricPrecision" stroke="white" stroke-miterlimit="1.45">
      <text x="1231.3672" xml:space="preserve" y="598.2656" clip-path="url(#clipPath2)" stroke="none">P</text>
    </g>
    <g fill="rgb(1,117,200)" text-rendering="geometricPrecision" shape-rendering="geometricPrecision" transform="matrix(1.25,0,0,1.25,-520,70)" stroke="rgb(1,117,200)">
      <rect x="1210.5" width="50" height="50" y="669.25" clip-path="url(#clipPath2)" stroke="none"/>
    </g>
    <g stroke-linecap="butt" font-size="16px" transform="matrix(1.25,0,0,1.25,-520,70)" fill="white" text-rendering="geometricPrecision" font-family="'Calibri'" shape-rendering="geometricPrecision" stroke="white" stroke-miterlimit="1.45">
      <text x="1231.3672" xml:space="preserve" y="700.0156" clip-path="url(#clipPath2)" stroke="none">P</text>
      <text fill="black" x="1229.4414" xml:space="preserve" y="649.1406" clip-path="url(#clipPath2)" stroke="none">...</text>
    </g>
    <g stroke-linecap="butt" transform="matrix(1.25,0,0,1.25,-520,70)" fill="rgb(1,117,200)" text-rendering="geometricPrecision" shape-rendering="geometricPrecision" stroke="rgb(1,117,200)" stroke-miterlimit="1.45">
      <rect fill="none" x="1366" width="71" height="307.5" y="428.75" clip-path="url(#clipPath2)"/>
      <rect stroke-linecap="square" x="1376.5" y="443" clip-path="url(#clipPath2)" width="50" height="50" stroke="none" stroke-miterlimit="10"/>
    </g>
    <g stroke-linecap="butt" font-size="16px" transform="matrix(1.25,0,0,1.25,-520,70)" fill="white" text-rendering="geometricPrecision" font-family="'Calibri'" shape-rendering="geometricPrecision" stroke="white" stroke-miterlimit="1.45">
      <text x="1397.3672" xml:space="preserve" y="473.7656" clip-path="url(#clipPath2)" stroke="none">P</text>
    </g>
    <g fill="rgb(1,117,200)" text-rendering="geometricPrecision" shape-rendering="geometricPrecision" transform="matrix(1.25,0,0,1.25,-520,70)" stroke="rgb(1,117,200)">
      <rect x="1376.5" width="50" height="50" y="505.25" clip-path="url(#clipPath2)" stroke="none"/>
    </g>
    <g stroke-linecap="butt" font-size="16px" transform="matrix(1.25,0,0,1.25,-520,70)" fill="white" text-rendering="geometricPrecision" font-family="'Calibri'" shape-rendering="geometricPrecision" stroke="white" stroke-miterlimit="1.45">
      <text x="1397.3672" xml:space="preserve" y="536.0156" clip-path="url(#clipPath2)" stroke="none">P</text>
    </g>
    <g fill="rgb(1,117,200)" text-rendering="geometricPrecision" shape-rendering="geometricPrecision" transform="matrix(1.25,0,0,1.25,-520,70)" stroke="rgb(1,117,200)">
      <rect x="1376.5" width="50" height="50" y="567.5" clip-path="url(#clipPath2)" stroke="none"/>
    </g>
    <g stroke-linecap="butt" font-size="16px" transform="matrix(1.25,0,0,1.25,-520,70)" fill="white" text-rendering="geometricPrecision" font-family="'Calibri'" shape-rendering="geometricPrecision" stroke="white" stroke-miterlimit="1.45">
      <text x="1397.3672" xml:space="preserve" y="598.2656" clip-path="url(#clipPath2)" stroke="none">P</text>
    </g>
    <g fill="rgb(1,117,200)" text-rendering="geometricPrecision" shape-rendering="geometricPrecision" transform="matrix(1.25,0,0,1.25,-520,70)" stroke="rgb(1,117,200)">
      <rect x="1376.5" width="50" height="50" y="669.25" clip-path="url(#clipPath2)" stroke="none"/>
    </g>
    <g stroke-linecap="butt" font-size="16px" transform="matrix(1.25,0,0,1.25,-520,70)" fill="white" text-rendering="geometricPrecision" font-family="'Calibri'" shape-rendering="geometricPrecision" stroke="white" stroke-miterlimit="1.45">
      <text x="1397.3672" xml:space="preserve" y="700.0156" clip-path="url(#clipPath2)" stroke="none">P</text>
      <text fill="black" x="1395.4414" xml:space="preserve" y="649.1406" clip-path="url(#clipPath2)" stroke="none">...</text>
      <text fill="black" x="1312.4414" xml:space="preserve" y="649.1406" clip-path="url(#clipPath2)" stroke="none">...</text>
      <text fill="black" x="1466.5625" xml:space="preserve" y="598.2656" clip-path="url(#clipPath2)" stroke="none">Route n</text>
    </g>
    <g fill="rgb(1,117,200)" text-rendering="geometricPrecision" shape-rendering="geometricPrecision" transform="matrix(1.25,0,0,1.25,-520,70)" stroke="rgb(1,117,200)">
      <path d="M1143.4987 351.4 L1147.9987 375.4 L1138.9987 375.4 Z" fill-rule="evenodd" clip-path="url(#clipPath2)" stroke="none"/>
      <path d="M1129.9987 351.4 L1138.9987 351.4 L1134.4987 375.4 Z" clip-path="url(#clipPath2)" fill-rule="evenodd" stroke="none"/>
    </g>
    <g font-size="16px" stroke-linecap="butt" transform="matrix(1.25,0,0,1.25,-520,70)" text-rendering="geometricPrecision" font-family="'Calibri'" shape-rendering="geometricPrecision" stroke-miterlimit="1.45">
      <text x="1179.6031" xml:space="preserve" y="369.1656" clip-path="url(#clipPath2)" stroke="none">Request/Response</text>
    </g>
    <g stroke-linecap="butt" transform="matrix(1.25,0,0,1.25,-520,70)" fill="rgb(1,117,200)" text-rendering="geometricPrecision" shape-rendering="geometricPrecision" stroke="rgb(1,117,200)" stroke-miterlimit="1.45">
      <path fill="none" d="M997.9603 609.1149 L988.25 611.375 L976.1562 611.1328 L963.75 607.9062 L956.7696 604.4975" clip-path="url(#clipPath2)"/>
      <path fill="none" d="M1436.9989 565.2378 L1437.7812 565.0391 L1449.25 564.875 L1460.4062 567.5391 L1471.25 573.0312 L1480.6912 580.4903" clip-path="url(#clipPath2)"/>
    </g>
  </g>
</svg>
