<?xml version="1.0" encoding="UTF-8"?><svg xmlns="http://www.w3.org/2000/svg" xmlns:xlink="http://www.w3.org/1999/xlink" fill-opacity="1" color-rendering="auto" color-interpolation="auto" text-rendering="auto" stroke="black" stroke-linecap="square" width="1970" stroke-miterlimit="10" shape-rendering="auto" stroke-opacity="1" fill="black" stroke-dasharray="none" font-weight="normal" stroke-width="1" height="1329" font-family="'Dialog'" font-style="normal" stroke-linejoin="miter" font-size="12px" stroke-dashoffset="0" image-rendering="auto">
  <!--Generated by ySVG 2.5-->
  <defs id="genericDefs"/>
  <g>
    <defs id="defs1">
      <clipPath clipPathUnits="userSpaceOnUse" id="clipPath1">
        <path d="M0 0 L1970 0 L1970 1329 L0 1329 L0 0 Z"/>
      </clipPath>
      <clipPath clipPathUnits="userSpaceOnUse" id="clipPath2">
        <path d="M74 -9 L2044 -9 L2044 1320 L74 1320 L74 -9 Z"/>
      </clipPath>
    </defs>
    <g fill="rgb(1,117,200)" text-rendering="geometricPrecision" shape-rendering="geometricPrecision" transform="matrix(1,0,0,1,-74,9)" stroke="rgb(1,117,200)">
      <rect x="869" width="287" height="59" y="547.5" clip-path="url(#clipPath2)" stroke="none"/>
    </g>
    <g stroke-linecap="butt" font-size="16px" transform="matrix(1,0,0,1,-74,9)" fill="white" text-rendering="geometricPrecision" font-family="'Calibri'" shape-rendering="geometricPrecision" stroke="white" stroke-miterlimit="1.45">
      <text x="1001.7227" xml:space="preserve" y="582.7656" clip-path="url(#clipPath2)" stroke="none">API</text>
    </g>
    <g fill="rgb(1,117,200)" text-rendering="geometricPrecision" shape-rendering="geometricPrecision" transform="matrix(1,0,0,1,-74,9)" stroke="rgb(1,117,200)">
      <rect x="869" width="287" height="59" y="625.5" clip-path="url(#clipPath2)" stroke="none"/>
    </g>
    <g stroke-linecap="butt" font-size="16px" transform="matrix(1,0,0,1,-74,9)" fill="white" text-rendering="geometricPrecision" font-family="'Calibri'" shape-rendering="geometricPrecision" stroke="white" stroke-miterlimit="1.45">
      <text x="995.9336" xml:space="preserve" y="660.7656" clip-path="url(#clipPath2)" stroke="none">Logic</text>
    </g>
    <g fill="rgb(1,117,200)" text-rendering="geometricPrecision" shape-rendering="geometricPrecision" transform="matrix(1,0,0,1,-74,9)" stroke="rgb(1,117,200)">
      <rect x="869" width="287" height="59" y="703.5" clip-path="url(#clipPath2)" stroke="none"/>
    </g>
    <g stroke-linecap="butt" font-size="16px" transform="matrix(1,0,0,1,-74,9)" fill="white" text-rendering="geometricPrecision" font-family="'Calibri'" shape-rendering="geometricPrecision" stroke="white" stroke-miterlimit="1.45">
      <text x="972.1562" xml:space="preserve" y="738.7656" clip-path="url(#clipPath2)" stroke="none">Repositories</text>
    </g>
    <g fill="rgb(1,117,200)" text-rendering="geometricPrecision" shape-rendering="geometricPrecision" transform="matrix(1,0,0,1,-74,9)" stroke="rgb(1,117,200)">
      <rect x="1179" width="71" height="215.5" y="547" clip-path="url(#clipPath2)" stroke="none"/>
    </g>
    <g stroke-linecap="butt" font-size="16px" transform="matrix(1,0,0,1,-74,9)" fill="white" text-rendering="geometricPrecision" font-family="'Calibri'" shape-rendering="geometricPrecision" stroke="white" stroke-miterlimit="1.45">
      <text x="1189.0977" xml:space="preserve" y="660.5156" clip-path="url(#clipPath2)" stroke="none">Domain</text>
    </g>
  </g>
</svg>
